HIERARCHY
	ROOT pelvis
	{
		OFFSET 0 0 0 
		CHANNELS 6 Xposition Yposition Zposition Zrotation Xrotation Yrotation
		JOINT lfemur_phantom
		{
			OFFSET 0 0.0899607 0 
			CHANNELS 3 Zrotation Xrotation Yrotation
			JOINT lfemur
			{
				OFFSET 0 0 -0.426035 
				CHANNELS 3 Zrotation Xrotation Yrotation
				JOINT ltibia
				{
					OFFSET 0 0 -0.409933 
					CHANNELS 3 Zrotation Xrotation Yrotation
					JOINT lfoot
					{
						OFFSET 0.105631 0 0.00135511 
						CHANNELS 3 Zrotation Xrotation Yrotation
						End Site
						{
							OFFSET 0.0352103 0 0.000451703
						}
					}
				}
			}
		}
		JOINT rfemur_phantom
		{
			OFFSET 0 -0.0899607 0 
			CHANNELS 3 Zrotation Xrotation Yrotation
			JOINT rfemur
			{
				OFFSET 0 0 -0.430137 
				CHANNELS 3 Zrotation Xrotation Yrotation
				JOINT rtibia
				{
					OFFSET 0 0 -0.390377 
					CHANNELS 3 Zrotation Xrotation Yrotation
					JOINT rfoot
					{
						OFFSET 0.106801 0 -0.00121178 
						CHANNELS 3 Zrotation Xrotation Yrotation
						End Site
						{
							OFFSET 0.0356003 0 -0.000403927
						}
					}
				}
			}
		}
		JOINT lowerback_phantom
		{
			OFFSET -0.05 0 0.107967 
			CHANNELS 3 Zrotation Xrotation Yrotation
			JOINT lowerback
			{
				OFFSET 0.0167886 0 0.161801 
				CHANNELS 3 Zrotation Xrotation Yrotation
				JOINT upperback
				{
					OFFSET 0 0 0 
					CHANNELS 3 Zrotation Xrotation Yrotation
					JOINT lclavicle_phantom
					{
						OFFSET 0 0 0.199349 
						CHANNELS 3 Zrotation Xrotation Yrotation
						JOINT lclavicle
						{
							OFFSET 0 0.164108 -0.0174105 
							CHANNELS 3 Zrotation Xrotation Yrotation
							JOINT lhumerus
							{
								OFFSET 0 0 -0.275026 
								CHANNELS 3 Zrotation Xrotation Yrotation
								JOINT lradius
								{
									OFFSET 0 0 -0.248775 
									CHANNELS 3 Zrotation Xrotation Yrotation
									End Site
									{
										OFFSET 0 0 -0.082925
									}
								}
							}
						}
					}
					JOINT rclavicle_phantom
					{
						OFFSET 0 0 0.199349 
						CHANNELS 3 Zrotation Xrotation Yrotation
						JOINT rclavicle
						{
							OFFSET 0 -0.165322 -0.0298984 
							CHANNELS 3 Zrotation Xrotation Yrotation
							JOINT rhumerus
							{
								OFFSET 0 0 -0.273337 
								CHANNELS 3 Zrotation Xrotation Yrotation
								JOINT rradius
								{
									OFFSET 0 0 -0.254845 
									CHANNELS 3 Zrotation Xrotation Yrotation
									End Site
									{
										OFFSET 0 0 -0.0849483
									}
								}
							}
						}
					}
					JOINT LowerNeck_phantom
					{
						OFFSET 0 0 0.199349 
						CHANNELS 3 Zrotation Xrotation Yrotation
						JOINT LowerNeck
						{
							OFFSET -0.0127292 -0.000602123 0.105365 
							CHANNELS 3 Zrotation Xrotation Yrotation
							End Site
							{
								OFFSET -0.00424307 -0.000200708 0.0351217
							}
						}
					}
				}
			}
		}
	}
MOTION
Frames:	13
Frame Time:	0.0166667
0.103047 0.872995 -0.156282 86.5025 -61.9755 85.1139 16.8585 5.66736 -14.9828 17.6944 8.50848 24.8802 -4.44928 -10.2371 21.3551 1.38153e-005 -7.15161e-006 4.35125 -7.2632 -4.53193 -9.44458 -15.2904 -8.89402 29.4891 3.43448 3.93406 3.82236 -6.51401e-009 -5.46605e-008 23.6368 -2.17405 2.25081 7.83289 2.6017 3.9805 2.7813 -0 0 -0 -8.26784 -9.65604 -1.39622 32.8633 25.1751 -19.4997 -4.70501 -5.61226 -130.083 2.61349e-006 4.92292 -17.2721 0.396645 -0.281922 0.00195397 23.0887 -42.951 -36.5466 8.53087 14.2474 -121.362 -9.90148e-006 -2.43366 -8.63985 -2.99547 1.58581 41.9523 35.1885 -41.3427 -60.1664 
0.103135 0.869854 -0.160371 86.9597 -61.8182 85.5309 17.0199 5.66008 -16.0193 16.7349 8.83212 27.0509 -4.37263 -9.59992 20.3679 -1.55512e-006 2.02092e-006 3.64953 -7.47738 -4.58028 -9.98238 -14.8656 -9.10032 30.7892 3.20597 3.63471 3.53763 -8.32897e-007 4.40701e-007 23.1139 -2.33236 2.3798 8.10009 2.57089 4.07104 2.75915 -0 0 -0 -8.31651 -9.73337 -1.41569 32.7034 25.1172 -19.5231 -4.76357 -5.68693 -130.062 4.52728e-006 4.995 -17.2962 0.439855 -0.154798 0.00118997 22.8666 -43.014 -36.7011 8.54859 14.2507 -121.41 -6.48111e-006 -2.39458 -8.62991 -3.09397 1.78842 41.6429 34.9156 -41.4691 -60.6777 
0.10306 0.866643 -0.164873 87.4934 -61.6354 86.0864 17.1669 5.64084 -17.1428 15.7601 9.10148 29.2705 -4.25611 -8.94412 19.4208 -5.8627e-007 2.58294e-006 2.90601 -7.77353 -4.6292 -10.5628 -14.4203 -9.27279 32.0737 3.05042 3.42173 3.23962 2.58036e-007 -6.62545e-007 22.584 -2.54541 2.55849 8.29147 2.55041 4.15742 2.75646 -0 0 -0 -8.32299 -9.81257 -1.42822 32.4084 25.0339 -19.5279 -4.69023 -5.60744 -130.018 -1.7698e-006 5.07512 -17.2424 0.462487 -0.0509931 0.000410053 22.709 -43.0412 -36.7697 8.587 14.2894 -121.458 -5.65401e-006 -2.34615 -8.61744 -3.21883 2.01003 41.3094 34.6967 -41.5804 -61.1171 
0.102828 0.863508 -0.16987 88.0148 -61.4066 86.6844 17.1929 5.58017 -18.2702 14.8374 9.32294 31.4468 -4.11006 -8.31998 18.5914 -3.58457e-006 1.62007e-006 2.11619 -8.19195 -4.73319 -11.1028 -13.9367 -9.35163 33.2169 2.96257 3.28489 2.91235 -1.0492e-006 1.25069e-006 22.1076 -2.77235 2.7348 8.41719 2.4783 4.23804 2.75098 -0 0 -0 -8.32091 -9.85019 -1.43327 32.0528 24.9288 -19.4837 -4.59068 -5.49665 -129.972 -2.78898e-006 5.00209 -17.1699 0.473711 0.0457957 -0.000378201 22.6302 -43.0343 -36.7266 8.63366 14.3446 -121.502 -6.82736e-006 -2.30543 -8.59406 -3.40009 2.25015 40.996 34.566 -41.6927 -61.4871 
0.102426 0.860554 -0.175382 88.51 -61.1288 87.3064 17.0942 5.47736 -19.373 13.9398 9.47298 33.5472 -3.93847 -7.73371 17.905 6.64012e-006 5.66266e-007 1.26223 -8.74486 -4.89456 -11.5905 -13.441 -9.34225 34.1858 2.92789 3.21005 2.5923 1.26324e-007 5.2139e-007 21.6817 -2.97236 2.84173 8.53078 2.31436 4.36031 2.71632 -0 0 -0 -8.31979 -9.82658 -1.42968 31.7108 24.8134 -19.4481 -4.50227 -5.39619 -129.939 3.32332e-007 4.77742 -17.1132 0.473705 0.175284 -0.00144786 22.5938 -43.0231 -36.632 8.66079 14.3721 -121.536 7.53986e-006 -2.25945 -8.56579 -3.6121 2.54713 40.6739 34.5056 -41.8232 -61.7806 
0.101856 0.857914 -0.181432 89.0306 -60.838 87.9914 16.9006 5.36641 -20.4181 13.063 9.53306 35.5186 -3.75256 -7.19745 17.3681 -8.91365e-006 1.28469e-006 0.303764 -9.35569 -5.07471 -12.0307 -13.0216 -9.30639 34.9635 2.9558 3.21611 2.37479 -1.68847e-008 7.55695e-008 21.2862 -3.15648 2.92404 8.6408 2.10378 4.52422 2.65406 -0 0 -0 -8.32477 -9.78157 -1.42406 31.4214 24.7327 -19.4679 -4.42988 -5.31111 -129.927 -4.19147e-006 4.51038 -17.076 0.448207 0.339144 -0.00265241 22.5839 -43.0259 -36.5073 8.66809 14.3659 -121.568 1.00947e-005 -2.17192 -8.53482 -3.82388 2.91476 40.3268 34.4728 -41.9726 -61.9682 
0.101138 0.855709 -0.188121 89.6023 -60.5947 88.7448 16.6578 5.26857 -21.3482 12.2175 9.49471 37.3011 -3.56026 -6.70853 16.9598 -6.10061e-007 1.37768e-006 -0.77511 -9.90703 -5.25968 -12.3994 -12.7474 -9.29295 35.5192 3.07416 3.33797 2.31231 -9.92837e-007 -8.97549e-008 20.9324 -3.33653 3.06793 8.71524 1.88497 4.69328 2.58884 -0 0 -0 -8.30847 -9.76991 -1.41955 31.1987 24.7429 -19.5611 -4.38708 -5.26014 -129.924 -5.39488e-006 4.29686 -17.0503 0.412113 0.506737 -0.00364326 22.6164 -43.0327 -36.3246 8.66148 14.3294 -121.612 4.19256e-006 -2.01979 -8.49057 -4.02188 3.2735 39.9888 34.4876 -42.1278 -62.0972 
0.100301 0.853999 -0.195544 90.2052 -60.4344 89.5554 16.4151 5.16764 -22.1398 11.3666 9.32664 38.8745 -3.33364 -6.20294 16.6714 -4.12035e-006 3.83572e-006 -2.03908 -10.3152 -5.46556 -12.6588 -12.6444 -9.30709 35.7876 3.31259 3.60415 2.36308 9.1872e-007 2.57639e-007 20.6719 -3.51162 3.26911 8.73089 1.68371 4.8657 2.52903 -0 0 -0 -8.24159 -9.76834 -1.40775 31.0533 24.8312 -19.7438 -4.40226 -5.28038 -129.914 -1.51274e-006 4.07589 -17.0547 0.368099 0.664159 -0.00426534 22.6829 -43.0319 -36.0982 8.63986 14.2603 -121.668 -2.99463e-006 -1.83106 -8.42095 -4.18187 3.62732 39.6652 34.538 -42.2881 -62.1779 
0.0994343 0.85284 -0.203828 90.7665 -60.3622 90.3144 16.1772 5.03213 -22.7261 10.522 9.04214 40.2362 -3.08789 -5.70594 16.516 2.3505e-006 3.58389e-007 -3.5224 -10.5898 -5.74668 -12.7172 -12.6811 -9.30411 35.6978 3.6559 3.99648 2.48639 6.31229e-007 3.47748e-007 20.5111 -3.65715 3.45753 8.72526 1.49253 5.05822 2.45618 -0 0 -0 -8.15675 -9.71478 -1.3855 31.0218 24.9811 -19.9907 -4.46346 -5.35733 -129.898 -4.27953e-007 3.85294 -17.0983 0.3268 0.83319 -0.00474963 22.7422 -43.0343 -35.8489 8.62943 14.2026 -121.739 1.00563e-005 -1.6416 -8.32648 -4.3578 3.99138 39.3948 34.6616 -42.4742 -62.1906 
0.0985576 0.852239 -0.213041 91.263 -60.366 91.0036 15.9549 4.83337 -23.1354 9.71677 8.69057 41.4254 -2.84742 -5.25104 16.4775 1.63653e-005 -5.2063e-006 -5.10901 -10.7611 -6.11363 -12.5864 -12.8499 -9.27984 35.2574 4.05856 4.47572 2.72169 -5.60418e-007 1.45683e-006 20.3955 -3.77323 3.65046 8.65502 1.29466 5.24564 2.37759 -0 0 -0 -8.08353 -9.59398 -1.356 31.1376 25.2167 -20.2704 -4.60499 -5.5294 -129.893 -3.34558e-006 3.61516 -17.2078 0.290218 1.02809 -0.00520881 22.7671 -43.0587 -35.5839 8.66696 14.2117 -121.836 -6.01403e-007 -1.45437 -8.21046 -4.53017 4.37534 39.2114 34.7915 -42.6599 -62.151 
0.0976557 0.852265 -0.223256 91.7407 -60.4566 91.6964 15.7907 4.56141 -23.4341 9.00839 8.33705 42.4461 -2.61103 -4.82993 16.5596 -1.33527e-006 4.1059e-006 -6.63615 -10.7563 -6.53435 -12.3167 -13.2331 -9.29211 34.475 4.51389 5.06191 3.17946 -1.26176e-006 1.6098e-006 20.2894 -3.85878 3.87718 8.48582 1.08295 5.4306 2.28953 -0 0 -0 -7.9948 -9.42474 -1.31749 31.3575 25.5823 -20.5721 -4.77488 -5.72473 -129.943 -3.68786e-006 3.51441 -17.2616 0.256717 1.24941 -0.00559921 22.7542 -43.1287 -35.3217 8.7465 14.272 -121.968 9.29549e-006 -1.29546 -8.1013 -4.63018 4.77812 39.0807 34.8948 -42.7951 -62.0511 
0.0967115 0.853068 -0.234614 92.1965 -60.6719 92.3847 15.6974 4.19391 -23.5936 8.52695 8.09935 43.2192 -2.41151 -4.50487 16.8006 1.08717e-006 3.17248e-006 -7.97413 -10.5749 -7.02632 -11.926 -13.7978 -9.30888 33.3714 5.00428 5.77685 3.97845 -9.20754e-007 -2.05348e-006 20.1355 -3.9101 4.13394 8.24495 0.890374 5.63209 2.17086 -0 0 -0 -7.88859 -9.23319 -1.2736 31.6645 26.0895 -20.867 -4.931 -5.88286 -130.089 -1.24901e-005 3.6211 -17.1789 0.210021 1.46375 -0.00536854 22.7209 -43.2316 -35.0763 8.80265 14.2815 -122.118 -5.04296e-006 -1.16298 -8.03049 -4.67552 5.11176 38.9883 35.0331 -42.8338 -61.9107 
0.0957207 0.85489 -0.247239 92.6468 -61.0297 93.0686 15.6646 3.71838 -23.5485 8.39721 8.08915 43.6284 -2.28462 -4.35184 17.2665 1.73517e-005 -7.3893e-006 -9.15705 -10.0946 -7.59988 -11.315 -14.6329 -9.31797 31.8044 5.55297 6.70028 5.19658 4.75156e-007 -1.56312e-006 19.9943 -3.94105 4.45365 7.94696 0.747173 5.841 2.03418 -0 0 -0 -7.76738 -9.03001 -1.22644 32.0375 26.7056 -21.1048 -5.05137 -5.97406 -130.341 5.9391e-006 3.84164 -17.0379 0.136126 1.63915 -0.00389097 22.676 -43.3597 -34.8585 8.81583 14.2103 -122.284 -2.15737e-005 -1.06433 -7.98284 -4.69439 5.42109 38.899 35.2358 -42.8353 -61.5992 
